<?xml version="1.0" encoding="UTF-8" standalone="no"?>
<svg
   xmlns:dc="http://purl.org/dc/elements/1.1/"
   xmlns:cc="http://creativecommons.org/ns#"
   xmlns:rdf="http://www.w3.org/1999/02/22-rdf-syntax-ns#"
   xmlns:svg="http://www.w3.org/2000/svg"
   xmlns="http://www.w3.org/2000/svg"
   xmlns:xlink="http://www.w3.org/1999/xlink"
   version="1.2"
   width="11.266746mm"
   height="10.318155mm"
   viewBox="0 0 6.4114022 5.8715979"
   id="svg399">
  <metadata
     id="metadata405">
    <rdf:RDF>
      <cc:Work
         rdf:about="">
        <dc:format>image/svg+xml</dc:format>
        <dc:type
           rdf:resource="http://purl.org/dc/dcmitype/StillImage" />
        <dc:title></dc:title>
      </cc:Work>
    </rdf:RDF>
  </metadata>
  <defs
     id="defs403" />
  <style
     text="style/css"
     id="style21"><![CDATA[
tspan { white-space: pre; }
]]></style>
  <!-- Page: 1/1 -->
  <g
     transform="translate(-29.6173,-17.7146)"
     id="g503">
    <text
       id="text25"
       fill="currentColor"
       text-anchor="start"
       font-size="2.2001px"
       font-family="serif"
       transform="translate(0.5691)"><tspan
         id="tspan23" /></text>
    <a
       id="a219"
       xlink:href="textedit:///Users/jwy/Documents/OPUS/GitHub/sf004/public/pieces/sf004/notation/sf004_ly_template.ly:64:66:67"
       style="color:inherit">
      <path
         id="path217"
         fill="currentColor"
         d="m 212,138 c 59,0 113,-31 113,-95 0,-71 -52,-120 -99,-148 -34,-21 -73,-33 -113,-33 -59,0 -113,31 -113,95 0,71 53,120 100,148 34,21 72,33 112,33 z"
         transform="matrix(0.0032,0,0,-0.0032,34.9887,23.1446)" />
    </a>
    <a
       id="a223"
       xlink:href="textedit:///Users/jwy/Documents/OPUS/GitHub/sf004/public/pieces/sf004/notation/sf004_ly_template.ly:64:61:62"
       style="color:inherit">
      <path
         id="path221"
         fill="currentColor"
         d="M 72,-250 189,76 C 155,64 120,54 84,54 38,54 -3,87 -3,133 c 0,40 33,72 73,72 25,0 48,-15 56,-39 10,-28 6,-59 35,-59 16,0 54,48 61,63 6,12 23,12 28,0 L 127,-250 c -8,-7 -17,-10 -27,-10 -10,0 -20,3 -28,10 z"
         transform="matrix(0.004,0,0,-0.004,29.6293,21.1446)" />
    </a>
    <rect
       id="rect225"
       fill="currentColor"
       ry="0.039999999"
       height="5.0539999"
       width="0.13"
       y="-3.1900001"
       x="-0.064999998"
       transform="translate(35.9562,21.1446)" />
    <a
       id="a257"
       xlink:href="textedit:///Users/jwy/Documents/OPUS/GitHub/sf004/public/pieces/sf004/notation/sf004_ly_template.ly:64:65:66"
       style="color:inherit">
      <polygon
         id="polygon253"
         points="0.04,0.2 0.04,-0.2 5.9169,-0.2 5.9169,0.2 "
         stroke="currentColor"
         fill="currentColor"
         stroke-width="0.08"
         stroke-linecap="round"
         stroke-linejoin="round"
         transform="translate(30.0643,17.9546)" />
      <polygon
         id="polygon255"
         points="0.04,0.2 0.04,-0.2 1.125,-0.2 1.125,0.2 "
         stroke="currentColor"
         fill="currentColor"
         stroke-width="0.08"
         stroke-linecap="round"
         stroke-linejoin="round"
         transform="translate(34.8562,18.7646)" />
    </a>
    <path
       id="path277"
       fill="currentColor"
       d="M 0,0 C 0,31 25,56 56,56 87,56 112,31 112,0 112,-31 87,-56 56,-56 25,-56 0,-31 0,0 Z"
       transform="matrix(0.004,0,0,-0.004,31.0793,21.1446)" />
  </g>
</svg>
