<?xml version="1.0" encoding="UTF-8" standalone="no"?>
<svg
   xmlns:dc="http://purl.org/dc/elements/1.1/"
   xmlns:cc="http://creativecommons.org/ns#"
   xmlns:rdf="http://www.w3.org/1999/02/22-rdf-syntax-ns#"
   xmlns:svg="http://www.w3.org/2000/svg"
   xmlns="http://www.w3.org/2000/svg"
   xmlns:xlink="http://www.w3.org/1999/xlink"
   version="1.2"
   width="10.54924mm"
   height="10.318155mm"
   viewBox="0 0 6.0031019 5.8715979"
   id="svg399">
  <metadata
     id="metadata405">
    <rdf:RDF>
      <cc:Work
         rdf:about="">
        <dc:format>image/svg+xml</dc:format>
        <dc:type
           rdf:resource="http://purl.org/dc/dcmitype/StillImage" />
        <dc:title></dc:title>
      </cc:Work>
    </rdf:RDF>
  </metadata>
  <defs
     id="defs403" />
  <style
     text="style/css"
     id="style21"><![CDATA[
tspan { white-space: pre; }
]]></style>
  <!-- Page: 1/1 -->
  <g
     transform="translate(-23.5118,-2.7146)"
     id="g220">
    <text
       id="text25"
       fill="currentColor"
       text-anchor="start"
       font-size="2.2001px"
       font-family="serif"
       transform="translate(0.5691)"><tspan
         id="tspan23" /></text>
    <polygon
       id="polygon93"
       points="0.04,0.2 0.04,-0.2 5.0531,-0.2 5.0531,0.2 "
       stroke="currentColor"
       fill="currentColor"
       stroke-width="0.08"
       stroke-linecap="round"
       stroke-linejoin="round"
       transform="translate(24.4143,2.9546)" />
    <polygon
       id="polygon95"
       points="0.04,0.2 0.04,-0.2 5.0531,-0.2 5.0531,0.2 "
       stroke="currentColor"
       fill="currentColor"
       stroke-width="0.08"
       stroke-linecap="round"
       stroke-linejoin="round"
       transform="translate(24.4143,3.7646)" />
    <a
       id="a149"
       xlink:href="textedit:///Users/jwy/Documents/OPUS/GitHub/sf004/public/pieces/sf004/notation/sf004_ly_template.ly:63:57:58"
       style="color:inherit">
      <path
         id="path147"
         fill="currentColor"
         d="m 212,138 c 59,0 113,-31 113,-95 0,-71 -52,-120 -99,-148 -34,-21 -73,-33 -113,-33 -59,0 -113,31 -113,95 0,71 53,120 100,148 34,21 72,33 112,33 z"
         transform="matrix(0.0032,0,0,-0.0032,23.5118,8.1446)" />
    </a>
    <rect
       id="rect151"
       fill="currentColor"
       ry="0.039999999"
       height="5.0539999"
       width="0.13"
       y="-3.1900001"
       x="-0.064999998"
       transform="translate(24.4793,6.1446)" />
    <a
       id="a155"
       xlink:href="textedit:///Users/jwy/Documents/OPUS/GitHub/sf004/public/pieces/sf004/notation/sf004_ly_template.ly:63:62:63"
       style="color:inherit">
      <path
         id="path153"
         fill="currentColor"
         d="m 212,138 c 59,0 113,-31 113,-95 0,-71 -52,-120 -99,-148 -34,-21 -73,-33 -113,-33 -59,0 -113,31 -113,95 0,71 53,120 100,148 34,21 72,33 112,33 z"
         transform="matrix(0.0032,0,0,-0.0032,25.1662,8.1446)" />
    </a>
    <rect
       id="rect157"
       fill="currentColor"
       ry="0.039999999"
       height="5.0539999"
       width="0.13"
       y="-3.1900001"
       x="-0.064999998"
       transform="translate(26.1336,6.1446)" />
    <a
       id="a161"
       xlink:href="textedit:///Users/jwy/Documents/OPUS/GitHub/sf004/public/pieces/sf004/notation/sf004_ly_template.ly:63:64:65"
       style="color:inherit">
      <path
         id="path159"
         fill="currentColor"
         d="m 212,138 c 59,0 113,-31 113,-95 0,-71 -52,-120 -99,-148 -34,-21 -73,-33 -113,-33 -59,0 -113,31 -113,95 0,71 53,120 100,148 34,21 72,33 112,33 z"
         transform="matrix(0.0032,0,0,-0.0032,26.8205,8.1446)" />
    </a>
    <rect
       id="rect163"
       fill="currentColor"
       ry="0.039999999"
       height="5.0539999"
       width="0.13"
       y="-3.1900001"
       x="-0.064999998"
       transform="translate(27.788,6.1446)" />
    <rect
       id="rect195"
       fill="currentColor"
       ry="0.039999999"
       height="5.0539999"
       width="0.13"
       y="-3.1900001"
       x="-0.064999998"
       transform="translate(29.4424,6.1446)" />
    <a
       id="a199"
       xlink:href="textedit:///Users/jwy/Documents/OPUS/GitHub/sf004/public/pieces/sf004/notation/sf004_ly_template.ly:63:66:67"
       style="color:inherit">
      <path
         id="path197"
         fill="currentColor"
         d="m 212,138 c 59,0 113,-31 113,-95 0,-71 -52,-120 -99,-148 -34,-21 -73,-33 -113,-33 -59,0 -113,31 -113,95 0,71 53,120 100,148 34,21 72,33 112,33 z"
         transform="matrix(0.0032,0,0,-0.0032,28.4749,8.1446)" />
    </a>
  </g>
</svg>
