<?xml version="1.0" encoding="UTF-8" standalone="no"?>
<svg
   xmlns:dc="http://purl.org/dc/elements/1.1/"
   xmlns:cc="http://creativecommons.org/ns#"
   xmlns:rdf="http://www.w3.org/1999/02/22-rdf-syntax-ns#"
   xmlns:svg="http://www.w3.org/2000/svg"
   xmlns="http://www.w3.org/2000/svg"
   xmlns:xlink="http://www.w3.org/1999/xlink"
   xmlns:sodipodi="http://sodipodi.sourceforge.net/DTD/sodipodi-0.dtd"
   xmlns:inkscape="http://www.inkscape.org/namespaces/inkscape"
   inkscape:version="1.0 (4035a4f, 2020-05-01)"
   sodipodi:docname="sf004_ly_template.svg"
   id="svg399"
   viewBox="0 0 5.919202 7.5711793"
   height="13.304829mm"
   width="10.401803mm"
   version="1.2">
  <metadata
     id="metadata405">
    <rdf:RDF>
      <cc:Work
         rdf:about="">
        <dc:format>image/svg+xml</dc:format>
        <dc:type
           rdf:resource="http://purl.org/dc/dcmitype/StillImage" />
        <dc:title></dc:title>
      </cc:Work>
    </rdf:RDF>
  </metadata>
  <defs
     id="defs403" />
  <sodipodi:namedview
     fit-margin-bottom="0"
     fit-margin-right="0"
     fit-margin-left="0"
     fit-margin-top="0"
     inkscape:current-layer="svg399"
     inkscape:window-maximized="0"
     inkscape:window-y="0"
     inkscape:window-x="614"
     inkscape:cy="82.608481"
     inkscape:cx="139.5559"
     inkscape:zoom="2.0876839"
     showgrid="false"
     id="namedview401"
     inkscape:window-height="1006"
     inkscape:window-width="1577"
     inkscape:pageshadow="2"
     inkscape:pageopacity="0"
     guidetolerance="10"
     gridtolerance="10"
     objecttolerance="10"
     borderopacity="1"
     bordercolor="#666666"
     pagecolor="#ffffff" />
  <style
     id="style21"
     text="style/css"><![CDATA[
tspan { white-space: pre; }
]]></style>
  <!-- Page: 1/1 -->
  <text
     y="-16.015018"
     x="-15.4076"
     id="text25"
     fill="currentColor"
     text-anchor="start"
     font-size="2.2001px"
     font-family="serif"><tspan
       id="tspan23" /></text>
  <g
     transform="translate(-15.9767,-16.015018)"
     id="g501">
    <polygon
       transform="translate(16.8792,17.9546)"
       stroke-linejoin="round"
       stroke-linecap="round"
       stroke-width="0.08"
       fill="currentColor"
       stroke="currentColor"
       points="0.04,0.2 0.04,-0.2 4.6967,-0.2 4.6967,0.2 "
       id="polygon259" />
    <a
       style="color:inherit"
       xlink:href="textedit:///Users/jwy/Documents/OPUS/GitHub/sf004/public/pieces/sf004/notation/sf004_ly_template.ly:64:21:22"
       id="a265">
      <text
         transform="translate(18.8037,17.195)"
         font-family="serif"
         font-style="italic"
         font-size="1.7461px"
         text-anchor="start"
         fill="currentColor"
         id="text263"><tspan
           id="tspan261">3</tspan></text>
    </a>
    <a
       style="color:inherit"
       xlink:href="textedit:///Users/jwy/Documents/OPUS/GitHub/sf004/public/pieces/sf004/notation/sf004_ly_template.ly:64:21:22"
       id="a275">
      <line
         transform="translate(16.8792,16.6146)"
         stroke-linejoin="round"
         stroke-linecap="round"
         stroke-width="0.16"
         stroke="currentColor"
         x1="4.9366999"
         y1="0"
         x2="4.9366999"
         y2="0.69999999"
         id="line267" />
      <line
         transform="translate(16.8792,16.6146)"
         stroke-linejoin="round"
         stroke-linecap="round"
         stroke-width="0.16"
         stroke="currentColor"
         x1="-0.2"
         y1="0"
         x2="-0.2"
         y2="0.69999999"
         id="line269" />
      <line
         transform="translate(16.8792,16.6146)"
         stroke-linejoin="round"
         stroke-linecap="round"
         stroke-width="0.16"
         stroke="currentColor"
         x1="4.9366999"
         y1="0"
         x2="3.4122"
         y2="0"
         id="line271" />
      <line
         transform="translate(16.8792,16.6146)"
         stroke-linejoin="round"
         stroke-linecap="round"
         stroke-width="0.16"
         stroke="currentColor"
         x1="-0.2"
         y1="0"
         x2="1.5245"
         y2="0"
         id="line273" />
    </a>
    <rect
       transform="translate(16.9442,21.1446)"
       x="-0.064999998"
       y="-3.1900001"
       width="0.13"
       height="5.0539999"
       ry="0.039999999"
       fill="currentColor"
       id="rect299" />
    <a
       style="color:inherit"
       xlink:href="textedit:///Users/jwy/Documents/OPUS/GitHub/sf004/public/pieces/sf004/notation/sf004_ly_template.ly:64:34:35"
       id="a309">
      <path
         transform="matrix(0.0032,0,0,-0.0032,15.9767,23.1446)"
         d="m 212,138 c 59,0 113,-31 113,-95 0,-71 -52,-120 -99,-148 -34,-21 -73,-33 -113,-33 -59,0 -113,31 -113,95 0,71 53,120 100,148 34,21 72,33 112,33 z"
         fill="currentColor"
         id="path307" />
    </a>
    <a
       style="color:inherit"
       xlink:href="textedit:///Users/jwy/Documents/OPUS/GitHub/sf004/public/pieces/sf004/notation/sf004_ly_template.ly:64:38:39"
       id="a313">
      <path
         transform="matrix(0.0032,0,0,-0.0032,18.2801,23.1446)"
         d="m 212,138 c 59,0 113,-31 113,-95 0,-71 -52,-120 -99,-148 -34,-21 -73,-33 -113,-33 -59,0 -113,31 -113,95 0,71 53,120 100,148 34,21 72,33 112,33 z"
         fill="currentColor"
         id="path311" />
    </a>
    <rect
       transform="translate(19.2476,21.1446)"
       x="-0.064999998"
       y="-3.1900001"
       width="0.13"
       height="5.0539999"
       ry="0.039999999"
       fill="currentColor"
       id="rect315" />
    <a
       style="color:inherit"
       xlink:href="textedit:///Users/jwy/Documents/OPUS/GitHub/sf004/public/pieces/sf004/notation/sf004_ly_template.ly:64:41:42"
       id="a347">
      <path
         transform="matrix(0.0032,0,0,-0.0032,20.5834,23.1446)"
         d="m 212,138 c 59,0 113,-31 113,-95 0,-71 -52,-120 -99,-148 -34,-21 -73,-33 -113,-33 -59,0 -113,31 -113,95 0,71 53,120 100,148 34,21 72,33 112,33 z"
         fill="currentColor"
         id="path345" />
    </a>
    <rect
       transform="translate(21.5509,21.1446)"
       x="-0.064999998"
       y="-3.1900001"
       width="0.13"
       height="5.0539999"
       ry="0.039999999"
       fill="currentColor"
       id="rect349" />
  </g>
</svg>
