<svg xmlns="http://www.w3.org/2000/svg" xmlns:xlink="http://www.w3.org/1999/xlink" version="1.2" width="13.00mm" height="30.00mm" viewBox="0 0 7.3977 17.0717">
<style text="style/css">
<![CDATA[
tspan { white-space: pre; }
]]>
</style>
<!-- Page: 1/1 -->
<text transform="translate(0.5691, -0.0000)" font-family="serif" font-size="2.2001" text-anchor="start" fill="currentColor">
<tspan/>
</text>
<line transform="translate(0.5691, 6.0586)" stroke-linejoin="round" stroke-linecap="round" stroke-width="0.1171" stroke="currentColor" x1="0.0586" y1="-0.0000" x2="6.2010" y2="-0.0000"/>
<line transform="translate(0.5691, 4.5586)" stroke-linejoin="round" stroke-linecap="round" stroke-width="0.1171" stroke="currentColor" x1="0.0586" y1="-0.0000" x2="6.2010" y2="-0.0000"/>
<line transform="translate(0.5691, 3.0586)" stroke-linejoin="round" stroke-linecap="round" stroke-width="0.1171" stroke="currentColor" x1="0.0586" y1="-0.0000" x2="6.2010" y2="-0.0000"/>
<line transform="translate(0.5691, 1.5586)" stroke-linejoin="round" stroke-linecap="round" stroke-width="0.1171" stroke="currentColor" x1="0.0586" y1="-0.0000" x2="6.2010" y2="-0.0000"/>
<line transform="translate(0.5691, 0.0586)" stroke-linejoin="round" stroke-linecap="round" stroke-width="0.1171" stroke="currentColor" x1="0.0586" y1="-0.0000" x2="6.2010" y2="-0.0000"/>
<a style="color:inherit;" xlink:href="textedit:///Users/jwy/Documents/OPUS/GitHub/sf004/public/pieces/sf004/notation/e4_e5.ly:90:10:11">
<path transform="translate(2.5691, 6.0586) scale(0.0052, -0.0052)" d="M222 135c53 0 104 -27 104 -86c0 -71 -56 -120 -103 -148c-36 -22 -76 -36 -118 -36c-53 0 -105 27 -105 86c0 71 57 120 104 148c36 22 76 36 118 36z" fill="currentColor"/>
</a>
<a style="color:inherit;" xlink:href="textedit:///Users/jwy/Documents/OPUS/GitHub/sf004/public/pieces/sf004/notation/e4_e5.ly:90:15:16">
<path transform="translate(2.5691, 0.8086) scale(0.0052, -0.0052)" d="M222 135c53 0 104 -27 104 -86c0 -71 -56 -120 -103 -148c-36 -22 -76 -36 -118 -36c-53 0 -105 27 -105 86c0 71 57 120 104 148c36 22 76 36 118 36z" fill="currentColor"/>
</a>
</svg>
