<svg xmlns="http://www.w3.org/2000/svg" xmlns:xlink="http://www.w3.org/1999/xlink" version="1.2" width="130.00mm" height="100.00mm" viewBox="0 0 73.9772 56.9055">
<style text="style/css">
<![CDATA[
tspan { white-space: pre; }
]]>
</style>
<!-- Page: 1/1 -->
<text transform="translate(0.5691, -0.0000)" font-family="serif" font-size="2.2001" text-anchor="start" fill="currentColor">
<tspan/>
</text>
<a style="color:inherit;" xlink:href="textedit:///Users/jwy/Documents/OPUS/GitHub/sf004/public/pieces/sf004/notation/sf004_ly_template_9beats.ly:63:112:113">
<path transform="translate(54.0361, 8.1446) scale(0.0032, -0.0032)" d="M212 138c59 0 113 -31 113 -95c0 -71 -52 -120 -99 -148c-34 -21 -73 -33 -113 -33c-59 0 -113 31 -113 95c0 71 53 120 100 148c34 21 72 33 112 33z" fill="currentColor"/>
</a>
<rect transform="translate(55.0036, 6.1446)" x="-0.0650" y="-3.1900" width="0.1300" height="5.0540" ry="0.0400" fill="currentColor"/>
<rect transform="translate(53.2309, 6.1446)" x="-0.0650" y="-3.1900" width="0.1300" height="5.0540" ry="0.0400" fill="currentColor"/>
<a style="color:inherit;" xlink:href="textedit:///Users/jwy/Documents/OPUS/GitHub/sf004/public/pieces/sf004/notation/sf004_ly_template_9beats.ly:63:14:15">
<path transform="translate(10.0801, 8.1446) scale(0.0032, -0.0032)" d="M212 138c59 0 113 -31 113 -95c0 -71 -52 -120 -99 -148c-34 -21 -73 -33 -113 -33c-59 0 -113 31 -113 95c0 71 53 120 100 148c34 21 72 33 112 33z" fill="currentColor"/>
</a>
<a style="color:inherit;" xlink:href="textedit:///Users/jwy/Documents/OPUS/GitHub/sf004/public/pieces/sf004/notation/sf004_ly_template_9beats.ly:63:118:119">
<path transform="translate(55.8089, 8.1446) scale(0.0032, -0.0032)" d="M212 138c59 0 113 -31 113 -95c0 -71 -52 -120 -99 -148c-34 -21 -73 -33 -113 -33c-59 0 -113 31 -113 95c0 71 53 120 100 148c34 21 72 33 112 33z" fill="currentColor"/>
</a>
<rect transform="translate(56.7763, 6.1446)" x="-0.0650" y="-3.1900" width="0.1300" height="5.0540" ry="0.0400" fill="currentColor"/>
<a style="color:inherit;" xlink:href="textedit:///Users/jwy/Documents/OPUS/GitHub/sf004/public/pieces/sf004/notation/sf004_ly_template_9beats.ly:63:19:20">
<g transform="translate(9.7598, 11.2801)" >
<path transform="scale(0.0032, -0.0032)" d="M180 217c0 9 8 16 8 25c0 12 -8 22 -19 22c-24 0 -45 -17 -45 -40c0 -17 16 -28 31 -36c34 -18 69 -41 69 -78c0 -63 -56 -110 -121 -110c-43 0 -80 31 -80 72c0 21 12 42 31 42c18 0 33 -15 33 -33c0 -13 -22 -15 -22 -28c0 -14 17 -21 33 -21c34 0 66 18 66 49
c0 57 -100 59 -100 115c0 53 42 96 95 96c57 0 81 -35 81 -63c0 -19 -11 -34 -29 -34s-31 11 -31 22z" fill="currentColor"/>

<path transform="translate(0.6487, 0.0000) scale(0.0032, -0.0032)" d="M252 237l-49 -160c-30 -99 -121 -255 -218 -255c-46 0 -87 32 -87 76c0 39 17 77 52 77c24 0 44 -20 44 -44c0 -30 -38 -25 -38 -55c0 -10 11 -10 23 -10h6c46 0 61 54 73 102l67 269h-45c-12 0 -22 10 -22 22s10 23 22 23h58c32 95 118 187 212 187c46 0 87 -31 87 -75
c0 -39 -17 -78 -52 -78c-24 0 -44 20 -44 44c0 30 38 25 38 55c0 10 -10 11 -22 11h-7c-58 0 -69 -81 -85 -144h50c12 0 23 -11 23 -23s-11 -22 -23 -22h-63z" fill="currentColor"/>
</g>
</a>
<a style="color:inherit;" xlink:href="textedit:///Users/jwy/Documents/OPUS/GitHub/sf004/public/pieces/sf004/notation/sf004_ly_template_9beats.ly:63:121:122">
<path transform="translate(57.5816, 6.1446) scale(0.0040, -0.0040)" d="M72 -250l117 326c-34 -12 -69 -22 -105 -22c-46 0 -87 33 -87 79c0 40 33 72 73 72c25 0 48 -15 56 -39c10 -28 6 -59 35 -59c16 0 54 48 61 63c6 12 23 12 28 0l-123 -420c-8 -7 -17 -10 -27 -10s-20 3 -28 10z" fill="currentColor"/>
</a>
<a style="color:inherit;" xlink:href="textedit:///Users/jwy/Documents/OPUS/GitHub/sf004/public/pieces/sf004/notation/sf004_ly_template_9beats.ly:63:88:89">
<path transform="translate(43.0971, 8.1446) scale(0.0032, -0.0032)" d="M212 138c59 0 113 -31 113 -95c0 -71 -52 -120 -99 -148c-34 -21 -73 -33 -113 -33c-59 0 -113 31 -113 95c0 71 53 120 100 148c34 21 72 33 112 33z" fill="currentColor"/>
</a>
<rect transform="translate(44.0646, 6.1446)" x="-0.0650" y="-3.1900" width="0.1300" height="5.0540" ry="0.0400" fill="currentColor"/>
<a style="color:inherit;" xlink:href="textedit:///Users/jwy/Documents/OPUS/GitHub/sf004/public/pieces/sf004/notation/sf004_ly_template_9beats.ly:63:95:96">
<path transform="translate(46.8101, 6.1446) scale(0.0040, -0.0040)" d="M72 -250l117 326c-34 -12 -69 -22 -105 -22c-46 0 -87 33 -87 79c0 40 33 72 73 72c25 0 48 -15 56 -39c10 -28 6 -59 35 -59c16 0 54 48 61 63c6 12 23 12 28 0l-123 -420c-8 -7 -17 -10 -27 -10s-20 3 -28 10z" fill="currentColor"/>
</a>
<a style="color:inherit;" xlink:href="textedit:///Users/jwy/Documents/OPUS/GitHub/sf004/public/pieces/sf004/notation/sf004_ly_template_9beats.ly:63:99:100">
<path transform="translate(50.4907, 8.1446) scale(0.0032, -0.0032)" d="M212 138c59 0 113 -31 113 -95c0 -71 -52 -120 -99 -148c-34 -21 -73 -33 -113 -33c-59 0 -113 31 -113 95c0 71 53 120 100 148c34 21 72 33 112 33z" fill="currentColor"/>
</a>
<rect transform="translate(51.4581, 6.1446)" x="-0.0650" y="-3.1900" width="0.1300" height="5.0540" ry="0.0400" fill="currentColor"/>
<a style="color:inherit;" xlink:href="textedit:///Users/jwy/Documents/OPUS/GitHub/sf004/public/pieces/sf004/notation/sf004_ly_template_9beats.ly:63:104:105">
<path transform="translate(52.2634, 8.1446) scale(0.0032, -0.0032)" d="M212 138c59 0 113 -31 113 -95c0 -71 -52 -120 -99 -148c-34 -21 -73 -33 -113 -33c-59 0 -113 31 -113 95c0 71 53 120 100 148c34 21 72 33 112 33z" fill="currentColor"/>
</a>
<a style="color:inherit;" xlink:href="textedit:///Users/jwy/Documents/OPUS/GitHub/sf004/public/pieces/sf004/notation/sf004_ly_template_9beats.ly:63:117:118">
<polygon transform="translate(54.9386, 2.9546)" stroke-linejoin="round" stroke-linecap="round" stroke-width="0.0800" fill="currentColor" stroke="currentColor" points="3.1680 -0.2000 3.1680 0.2000 0.0400 0.2000 0.0400 -0.2000"/>
<polygon transform="translate(54.9386, 3.7646)" stroke-linejoin="round" stroke-linecap="round" stroke-width="0.0800" fill="currentColor" stroke="currentColor" points="1.8627 -0.2000 1.8627 0.2000 0.0400 0.2000 0.0400 -0.2000"/>
</a>
<a style="color:inherit;" xlink:href="textedit:///Users/jwy/Documents/OPUS/GitHub/sf004/public/pieces/sf004/notation/sf004_ly_template_9beats.ly:63:39:40">
<path transform="translate(17.6736, 8.1446) scale(0.0032, -0.0032)" d="M212 138c59 0 113 -31 113 -95c0 -71 -52 -120 -99 -148c-34 -21 -73 -33 -113 -33c-59 0 -113 31 -113 95c0 71 53 120 100 148c34 21 72 33 112 33z" fill="currentColor"/>
</a>
<a style="color:inherit;" xlink:href="textedit:///Users/jwy/Documents/OPUS/GitHub/sf004/public/pieces/sf004/notation/sf004_ly_template_9beats.ly:63:44:45">
<g transform="translate(17.3534, 11.2801)" >
<path transform="scale(0.0032, -0.0032)" d="M180 217c0 9 8 16 8 25c0 12 -8 22 -19 22c-24 0 -45 -17 -45 -40c0 -17 16 -28 31 -36c34 -18 69 -41 69 -78c0 -63 -56 -110 -121 -110c-43 0 -80 31 -80 72c0 21 12 42 31 42c18 0 33 -15 33 -33c0 -13 -22 -15 -22 -28c0 -14 17 -21 33 -21c34 0 66 18 66 49
c0 57 -100 59 -100 115c0 53 42 96 95 96c57 0 81 -35 81 -63c0 -19 -11 -34 -29 -34s-31 11 -31 22z" fill="currentColor"/>

<path transform="translate(0.6487, 0.0000) scale(0.0032, -0.0032)" d="M252 237l-49 -160c-30 -99 -121 -255 -218 -255c-46 0 -87 32 -87 76c0 39 17 77 52 77c24 0 44 -20 44 -44c0 -30 -38 -25 -38 -55c0 -10 11 -10 23 -10h6c46 0 61 54 73 102l67 269h-45c-12 0 -22 10 -22 22s10 23 22 23h58c32 95 118 187 212 187c46 0 87 -31 87 -75
c0 -39 -17 -78 -52 -78c-24 0 -44 20 -44 44c0 30 38 25 38 55c0 10 -10 11 -22 11h-7c-58 0 -69 -81 -85 -144h50c12 0 23 -11 23 -23s-11 -22 -23 -22h-63z" fill="currentColor"/>
</g>
</a>
<a style="color:inherit;" xlink:href="textedit:///Users/jwy/Documents/OPUS/GitHub/sf004/public/pieces/sf004/notation/sf004_ly_template_9beats.ly:63:42:43">
<path transform="translate(18.1899, 8.7833) scale(0.0040, -0.0040)" d="M112 0c7 0 13 -5 13 -12c0 -2 0 -4 -1 -6l-113 -250c-2 -4 -6 -7 -11 -7s-9 3 -11 7l-113 250c-1 2 -1 4 -1 6c0 7 6 12 13 12h66c5 0 10 -3 12 -7l68 -150l67 150c2 4 6 7 11 7z" fill="currentColor"/>
</a>
<rect transform="translate(18.6411, 6.1446)" x="-0.0650" y="-3.1900" width="0.1300" height="5.0540" ry="0.0400" fill="currentColor"/>
<a style="color:inherit;" xlink:href="textedit:///Users/jwy/Documents/OPUS/GitHub/sf004/public/pieces/sf004/notation/sf004_ly_template_9beats.ly:63:98:99">
<polygon transform="translate(47.2451, 2.9546)" stroke-linejoin="round" stroke-linecap="round" stroke-width="0.0800" fill="currentColor" stroke="currentColor" points="6.0107 -0.2000 6.0107 0.2000 0.0400 0.2000 0.0400 -0.2000"/>
<polygon transform="translate(51.3931, 3.7646)" stroke-linejoin="round" stroke-linecap="round" stroke-width="0.0800" fill="currentColor" stroke="currentColor" points="1.8627 -0.2000 1.8627 0.2000 0.0400 0.2000 0.0400 -0.2000"/>
</a>
<a style="color:inherit;" xlink:href="textedit:///Users/jwy/Documents/OPUS/GitHub/sf004/public/pieces/sf004/notation/sf004_ly_template_9beats.ly:63:87:88">
<polygon transform="translate(39.8516, 2.9546)" stroke-linejoin="round" stroke-linecap="round" stroke-width="0.0800" fill="currentColor" stroke="currentColor" points="4.2380 -0.2000 4.2380 0.2000 0.0400 0.2000 0.0400 -0.2000"/>
</a>
<polygon transform="translate(25.8346, 2.9546)" stroke-linejoin="round" stroke-linecap="round" stroke-width="0.0800" fill="currentColor" stroke="currentColor" points="5.4082 -0.2000 5.4082 0.2000 0.0400 0.2000 0.0400 -0.2000"/>
<polygon transform="translate(25.8346, 3.7646)" stroke-linejoin="round" stroke-linecap="round" stroke-width="0.0800" fill="currentColor" stroke="currentColor" points="5.4082 -0.2000 5.4082 0.2000 0.0400 0.2000 0.0400 -0.2000"/>
<a style="color:inherit;" xlink:href="textedit:///Users/jwy/Documents/OPUS/GitHub/sf004/public/pieces/sf004/notation/sf004_ly_template_9beats.ly:63:75:76">
<polygon transform="translate(32.4581, 2.9546)" stroke-linejoin="round" stroke-linecap="round" stroke-width="0.0800" fill="currentColor" stroke="currentColor" points="6.1783 -0.2000 6.1783 0.2000 0.0400 0.2000 0.0400 -0.2000"/>
<polygon transform="translate(37.5113, 3.7646)" stroke-linejoin="round" stroke-linecap="round" stroke-width="0.0800" fill="currentColor" stroke="currentColor" points="1.1250 -0.2000 1.1250 0.2000 0.0400 0.2000 0.0400 -0.2000"/>
</a>
<polygon transform="translate(18.5761, 2.9546)" stroke-linejoin="round" stroke-linecap="round" stroke-width="0.0800" fill="currentColor" stroke="currentColor" points="4.9290 -0.2000 4.9290 0.2000 0.0400 0.2000 0.0400 -0.2000"/>
<a style="color:inherit;" xlink:href="textedit:///Users/jwy/Documents/OPUS/GitHub/sf004/public/pieces/sf004/notation/sf004_ly_template_9beats.ly:63:26:27">
<text transform="translate(20.6167, 2.1950)" font-family="serif" font-style="italic" font-size="1.7461" text-anchor="start" fill="currentColor">
<tspan>3</tspan>
</text>
</a>
<a style="color:inherit;" xlink:href="textedit:///Users/jwy/Documents/OPUS/GitHub/sf004/public/pieces/sf004/notation/sf004_ly_template_9beats.ly:63:26:27">
<line transform="translate(18.5761, 1.6146)" stroke-linejoin="round" stroke-linecap="round" stroke-width="0.1600" stroke="currentColor" x1="5.1690" y1="-0.0000" x2="5.1690" y2="0.7000"/>
<line transform="translate(18.5761, 1.6146)" stroke-linejoin="round" stroke-linecap="round" stroke-width="0.1600" stroke="currentColor" x1="-0.2000" y1="-0.0000" x2="-0.2000" y2="0.7000"/>
<line transform="translate(18.5761, 1.6146)" stroke-linejoin="round" stroke-linecap="round" stroke-width="0.1600" stroke="currentColor" x1="5.1690" y1="-0.0000" x2="3.5284" y2="-0.0000"/>
<line transform="translate(18.5761, 1.6146)" stroke-linejoin="round" stroke-linecap="round" stroke-width="0.1600" stroke="currentColor" x1="-0.2000" y1="-0.0000" x2="1.6406" y2="-0.0000"/>
</a>
<rect transform="translate(11.0476, 6.1446)" x="-0.0650" y="-3.5000" width="0.1300" height="5.3640" ry="0.0400" fill="currentColor"/>
<a style="color:inherit;" xlink:href="textedit:///Users/jwy/Documents/OPUS/GitHub/sf004/public/pieces/sf004/notation/sf004_ly_template_9beats.ly:63:17:18">
<path transform="translate(10.5963, 8.7833) scale(0.0040, -0.0040)" d="M112 0c7 0 13 -5 13 -12c0 -2 0 -4 -1 -6l-113 -250c-2 -4 -6 -7 -11 -7s-9 3 -11 7l-113 250c-1 2 -1 4 -1 6c0 7 6 12 13 12h66c5 0 10 -3 12 -7l68 -150l67 150c2 4 6 7 11 7z" fill="currentColor"/>
</a>
<a style="color:inherit;" xlink:href="textedit:///Users/jwy/Documents/OPUS/GitHub/sf004/public/pieces/sf004/notation/sf004_ly_template_9beats.ly:63:129:130">
<path transform="translate(61.2621, 8.1446) scale(0.0032, -0.0032)" d="M212 138c59 0 113 -31 113 -95c0 -71 -52 -120 -99 -148c-34 -21 -73 -33 -113 -33c-59 0 -113 31 -113 95c0 71 53 120 100 148c34 21 72 33 112 33z" fill="currentColor"/>
</a>
<rect transform="translate(62.2296, 6.1446)" x="-0.0650" y="-3.5000" width="0.1300" height="5.3640" ry="0.0400" fill="currentColor"/>
<a style="color:inherit;" xlink:href="textedit:///Users/jwy/Documents/OPUS/GitHub/sf004/public/pieces/sf004/notation/sf004_ly_template_9beats.ly:63:8:9">
<path transform="translate(2.5691, 6.1446) scale(0.0040, -0.0040)" d="M-23 -116c0 28 11 42 40 42c33 0 78 -13 119 -31l-132 158c-7 9 -10 17 -10 25c0 34 50 66 87 99c25 22 37 52 37 83c0 24 -8 49 -25 69l-35 42c-3 3 -4 7 -4 10c0 9 9 15 17 15c4 0 8 -1 11 -5l151 -180c7 -9 10 -17 10 -25c0 -34 -50 -66 -87 -99
c-25 -22 -37 -52 -37 -83c0 -24 7 -49 24 -69l84 -99c3 -3 4 -7 4 -10c0 -9 -8 -16 -16 -16c-4 0 -9 2 -12 6c-18 21 -63 38 -97 38c-41 0 -53 -26 -53 -67c0 -35 11 -74 28 -94c5 -6 0 -13 -6 -13c-2 0 -4 0 -6 2c-45 54 -92 148 -92 202z" fill="currentColor"/>
</a>
<a style="color:inherit;" xlink:href="textedit:///Users/jwy/Documents/OPUS/GitHub/sf004/public/pieces/sf004/notation/sf004_ly_template_9beats.ly:63:57:58">
<path transform="translate(24.9321, 8.1446) scale(0.0032, -0.0032)" d="M212 138c59 0 113 -31 113 -95c0 -71 -52 -120 -99 -148c-34 -21 -73 -33 -113 -33c-59 0 -113 31 -113 95c0 71 53 120 100 148c34 21 72 33 112 33z" fill="currentColor"/>
</a>
<rect transform="translate(25.8996, 6.1446)" x="-0.0650" y="-3.1900" width="0.1300" height="5.0540" ry="0.0400" fill="currentColor"/>
<a style="color:inherit;" xlink:href="textedit:///Users/jwy/Documents/OPUS/GitHub/sf004/public/pieces/sf004/notation/sf004_ly_template_9beats.ly:63:62:63">
<path transform="translate(26.7049, 8.1446) scale(0.0032, -0.0032)" d="M212 138c59 0 113 -31 113 -95c0 -71 -52 -120 -99 -148c-34 -21 -73 -33 -113 -33c-59 0 -113 31 -113 95c0 71 53 120 100 148c34 21 72 33 112 33z" fill="currentColor"/>
</a>
<rect transform="translate(27.6723, 6.1446)" x="-0.0650" y="-3.1900" width="0.1300" height="5.0540" ry="0.0400" fill="currentColor"/>
<a style="color:inherit;" xlink:href="textedit:///Users/jwy/Documents/OPUS/GitHub/sf004/public/pieces/sf004/notation/sf004_ly_template_9beats.ly:63:64:65">
<path transform="translate(28.4776, 8.1446) scale(0.0032, -0.0032)" d="M212 138c59 0 113 -31 113 -95c0 -71 -52 -120 -99 -148c-34 -21 -73 -33 -113 -33c-59 0 -113 31 -113 95c0 71 53 120 100 148c34 21 72 33 112 33z" fill="currentColor"/>
</a>
<rect transform="translate(29.4451, 6.1446)" x="-0.0650" y="-3.1900" width="0.1300" height="5.0540" ry="0.0400" fill="currentColor"/>
<a style="color:inherit;" xlink:href="textedit:///Users/jwy/Documents/OPUS/GitHub/sf004/public/pieces/sf004/notation/sf004_ly_template_9beats.ly:63:48:49">
<path transform="translate(20.0931, 8.1446) scale(0.0032, -0.0032)" d="M212 138c59 0 113 -31 113 -95c0 -71 -52 -120 -99 -148c-34 -21 -73 -33 -113 -33c-59 0 -113 31 -113 95c0 71 53 120 100 148c34 21 72 33 112 33z" fill="currentColor"/>
</a>
<rect transform="translate(21.0606, 6.1446)" x="-0.0650" y="-3.1900" width="0.1300" height="5.0540" ry="0.0400" fill="currentColor"/>
<a style="color:inherit;" xlink:href="textedit:///Users/jwy/Documents/OPUS/GitHub/sf004/public/pieces/sf004/notation/sf004_ly_template_9beats.ly:63:51:52">
<path transform="translate(22.5126, 8.1446) scale(0.0032, -0.0032)" d="M212 138c59 0 113 -31 113 -95c0 -71 -52 -120 -99 -148c-34 -21 -73 -33 -113 -33c-59 0 -113 31 -113 95c0 71 53 120 100 148c34 21 72 33 112 33z" fill="currentColor"/>
</a>
<rect transform="translate(23.4801, 6.1446)" x="-0.0650" y="-3.1900" width="0.1300" height="5.0540" ry="0.0400" fill="currentColor"/>
<a style="color:inherit;" xlink:href="textedit:///Users/jwy/Documents/OPUS/GitHub/sf004/public/pieces/sf004/notation/sf004_ly_template_9beats.ly:63:84:85">
<path transform="translate(39.4166, 6.1446) scale(0.0040, -0.0040)" d="M72 -250l117 326c-34 -12 -69 -22 -105 -22c-46 0 -87 33 -87 79c0 40 33 72 73 72c25 0 48 -15 56 -39c10 -28 6 -59 35 -59c16 0 54 48 61 63c6 12 23 12 28 0l-123 -420c-8 -7 -17 -10 -27 -10s-20 3 -28 10z" fill="currentColor"/>
</a>
<path transform="translate(33.4731, 6.1446) scale(0.0040, -0.0040)" d="M0 0c0 31 25 56 56 56s56 -25 56 -56s-25 -56 -56 -56s-56 25 -56 56z" fill="currentColor"/>
<a style="color:inherit;" xlink:href="textedit:///Users/jwy/Documents/OPUS/GitHub/sf004/public/pieces/sf004/notation/sf004_ly_template_9beats.ly:63:71:72">
<path transform="translate(32.0231, 6.1446) scale(0.0040, -0.0040)" d="M72 -250l117 326c-34 -12 -69 -22 -105 -22c-46 0 -87 33 -87 79c0 40 33 72 73 72c25 0 48 -15 56 -39c10 -28 6 -59 35 -59c16 0 54 48 61 63c6 12 23 12 28 0l-123 -420c-8 -7 -17 -10 -27 -10s-20 3 -28 10z" fill="currentColor"/>
</a>
<a style="color:inherit;" xlink:href="textedit:///Users/jwy/Documents/OPUS/GitHub/sf004/public/pieces/sf004/notation/sf004_ly_template_9beats.ly:63:76:77">
<path transform="translate(37.6439, 8.1446) scale(0.0032, -0.0032)" d="M212 138c59 0 113 -31 113 -95c0 -71 -52 -120 -99 -148c-34 -21 -73 -33 -113 -33c-59 0 -113 31 -113 95c0 71 53 120 100 148c34 21 72 33 112 33z" fill="currentColor"/>
</a>
<rect transform="translate(38.6113, 6.1446)" x="-0.0650" y="-3.1900" width="0.1300" height="5.0540" ry="0.0400" fill="currentColor"/>
<rect transform="translate(31.2178, 6.1446)" x="-0.0650" y="-3.1900" width="0.1300" height="5.0540" ry="0.0400" fill="currentColor"/>
<a style="color:inherit;" xlink:href="textedit:///Users/jwy/Documents/OPUS/GitHub/sf004/public/pieces/sf004/notation/sf004_ly_template_9beats.ly:63:66:67">
<path transform="translate(30.2503, 8.1446) scale(0.0032, -0.0032)" d="M212 138c59 0 113 -31 113 -95c0 -71 -52 -120 -99 -148c-34 -21 -73 -33 -113 -33c-59 0 -113 31 -113 95c0 71 53 120 100 148c34 21 72 33 112 33z" fill="currentColor"/>
</a>
<a style="color:inherit;" xlink:href="textedit:///Users/jwy/Documents/OPUS/GitHub/sf004/public/pieces/sf004/notation/sf004_ly_template_9beats.ly:64:78:79">
<path transform="translate(42.7082, 23.1446) scale(0.0032, -0.0032)" d="M212 138c59 0 113 -31 113 -95c0 -71 -52 -120 -99 -148c-34 -21 -73 -33 -113 -33c-59 0 -113 31 -113 95c0 71 53 120 100 148c34 21 72 33 112 33z" fill="currentColor"/>
</a>
<rect transform="translate(43.6757, 21.1446)" x="-0.0650" y="-3.1900" width="0.1300" height="5.0540" ry="0.0400" fill="currentColor"/>
<a style="color:inherit;" xlink:href="textedit:///Users/jwy/Documents/OPUS/GitHub/sf004/public/pieces/sf004/notation/sf004_ly_template_9beats.ly:64:85:86">
<path transform="translate(46.4768, 21.1446) scale(0.0040, -0.0040)" d="M72 -250l117 326c-34 -12 -69 -22 -105 -22c-46 0 -87 33 -87 79c0 40 33 72 73 72c25 0 48 -15 56 -39c10 -28 6 -59 35 -59c16 0 54 48 61 63c6 12 23 12 28 0l-123 -420c-8 -7 -17 -10 -27 -10s-20 3 -28 10z" fill="currentColor"/>
</a>
<a style="color:inherit;" xlink:href="textedit:///Users/jwy/Documents/OPUS/GitHub/sf004/public/pieces/sf004/notation/sf004_ly_template_9beats.ly:64:89:90">
<path transform="translate(50.2129, 23.1446) scale(0.0032, -0.0032)" d="M212 138c59 0 113 -31 113 -95c0 -71 -52 -120 -99 -148c-34 -21 -73 -33 -113 -33c-59 0 -113 31 -113 95c0 71 53 120 100 148c34 21 72 33 112 33z" fill="currentColor"/>
</a>
<rect transform="translate(51.1804, 21.1446)" x="-0.0650" y="-3.1900" width="0.1300" height="5.0540" ry="0.0400" fill="currentColor"/>
<a style="color:inherit;" xlink:href="textedit:///Users/jwy/Documents/OPUS/GitHub/sf004/public/pieces/sf004/notation/sf004_ly_template_9beats.ly:64:94:95">
<path transform="translate(52.0134, 23.1446) scale(0.0032, -0.0032)" d="M212 138c59 0 113 -31 113 -95c0 -71 -52 -120 -99 -148c-34 -21 -73 -33 -113 -33c-59 0 -113 31 -113 95c0 71 53 120 100 148c34 21 72 33 112 33z" fill="currentColor"/>
</a>
<rect transform="translate(52.9809, 21.1446)" x="-0.0650" y="-3.1900" width="0.1300" height="5.0540" ry="0.0400" fill="currentColor"/>
<a style="color:inherit;" xlink:href="textedit:///Users/jwy/Documents/OPUS/GitHub/sf004/public/pieces/sf004/notation/sf004_ly_template_9beats.ly:64:66:67">
<path transform="translate(37.1716, 23.1446) scale(0.0032, -0.0032)" d="M212 138c59 0 113 -31 113 -95c0 -71 -52 -120 -99 -148c-34 -21 -73 -33 -113 -33c-59 0 -113 31 -113 95c0 71 53 120 100 148c34 21 72 33 112 33z" fill="currentColor"/>
</a>
<a style="color:inherit;" xlink:href="textedit:///Users/jwy/Documents/OPUS/GitHub/sf004/public/pieces/sf004/notation/sf004_ly_template_9beats.ly:64:61:62">
<path transform="translate(31.4675, 21.1446) scale(0.0040, -0.0040)" d="M72 -250l117 326c-34 -12 -69 -22 -105 -22c-46 0 -87 33 -87 79c0 40 33 72 73 72c25 0 48 -15 56 -39c10 -28 6 -59 35 -59c16 0 54 48 61 63c6 12 23 12 28 0l-123 -420c-8 -7 -17 -10 -27 -10s-20 3 -28 10z" fill="currentColor"/>
</a>
<path transform="translate(32.9175, 21.1446) scale(0.0040, -0.0040)" d="M0 0c0 31 25 56 56 56s56 -25 56 -56s-25 -56 -56 -56s-56 25 -56 56z" fill="currentColor"/>
<rect transform="translate(38.1391, 21.1446)" x="-0.0650" y="-3.1900" width="0.1300" height="5.0540" ry="0.0400" fill="currentColor"/>
<a style="color:inherit;" xlink:href="textedit:///Users/jwy/Documents/OPUS/GitHub/sf004/public/pieces/sf004/notation/sf004_ly_template_9beats.ly:64:74:75">
<path transform="translate(38.9722, 21.1446) scale(0.0040, -0.0040)" d="M72 -250l117 326c-34 -12 -69 -22 -105 -22c-46 0 -87 33 -87 79c0 40 33 72 73 72c25 0 48 -15 56 -39c10 -28 6 -59 35 -59c16 0 54 48 61 63c6 12 23 12 28 0l-123 -420c-8 -7 -17 -10 -27 -10s-20 3 -28 10z" fill="currentColor"/>
</a>
<a style="color:inherit;" xlink:href="textedit:///Users/jwy/Documents/OPUS/GitHub/sf004/public/pieces/sf004/notation/sf004_ly_template_9beats.ly:64:122:123">
<path transform="translate(61.1510, 23.1446) scale(0.0032, -0.0032)" d="M212 138c59 0 113 -31 113 -95c0 -71 -52 -120 -99 -148c-34 -21 -73 -33 -113 -33c-59 0 -113 31 -113 95c0 71 53 120 100 148c34 21 72 33 112 33z" fill="currentColor"/>
</a>
<rect transform="translate(62.1185, 21.1446)" x="-0.0650" y="-3.5000" width="0.1300" height="5.3640" ry="0.0400" fill="currentColor"/>
<a style="color:inherit;" xlink:href="textedit:///Users/jwy/Documents/OPUS/GitHub/sf004/public/pieces/sf004/notation/sf004_ly_template_9beats.ly:64:107:108">
<polygon transform="translate(54.7164, 17.9546)" stroke-linejoin="round" stroke-linecap="round" stroke-width="0.0800" fill="currentColor" stroke="currentColor" points="3.2236 -0.2000 3.2236 0.2000 0.0400 0.2000 0.0400 -0.2000"/>
<polygon transform="translate(54.7164, 18.7646)" stroke-linejoin="round" stroke-linecap="round" stroke-width="0.0800" fill="currentColor" stroke="currentColor" points="1.8905 -0.2000 1.8905 0.2000 0.0400 0.2000 0.0400 -0.2000"/>
</a>
<a style="color:inherit;" xlink:href="textedit:///Users/jwy/Documents/OPUS/GitHub/sf004/public/pieces/sf004/notation/sf004_ly_template_9beats.ly:64:88:89">
<polygon transform="translate(46.9118, 17.9546)" stroke-linejoin="round" stroke-linecap="round" stroke-width="0.0800" fill="currentColor" stroke="currentColor" points="6.0941 -0.2000 6.0941 0.2000 0.0400 0.2000 0.0400 -0.2000"/>
<polygon transform="translate(51.1154, 18.7646)" stroke-linejoin="round" stroke-linecap="round" stroke-width="0.0800" fill="currentColor" stroke="currentColor" points="1.8905 -0.2000 1.8905 0.2000 0.0400 0.2000 0.0400 -0.2000"/>
</a>
<a style="color:inherit;" xlink:href="textedit:///Users/jwy/Documents/OPUS/GitHub/sf004/public/pieces/sf004/notation/sf004_ly_template_9beats.ly:64:77:78">
<polygon transform="translate(39.4072, 17.9546)" stroke-linejoin="round" stroke-linecap="round" stroke-width="0.0800" fill="currentColor" stroke="currentColor" points="4.2936 -0.2000 4.2936 0.2000 0.0400 0.2000 0.0400 -0.2000"/>
</a>
<polygon transform="translate(25.1679, 17.9546)" stroke-linejoin="round" stroke-linecap="round" stroke-width="0.0800" fill="currentColor" stroke="currentColor" points="5.4915 -0.2000 5.4915 0.2000 0.0400 0.2000 0.0400 -0.2000"/>
<polygon transform="translate(25.1679, 18.7646)" stroke-linejoin="round" stroke-linecap="round" stroke-width="0.0800" fill="currentColor" stroke="currentColor" points="5.4915 -0.2000 5.4915 0.2000 0.0400 0.2000 0.0400 -0.2000"/>
<a style="color:inherit;" xlink:href="textedit:///Users/jwy/Documents/OPUS/GitHub/sf004/public/pieces/sf004/notation/sf004_ly_template_9beats.ly:64:65:66">
<polygon transform="translate(31.9025, 17.9546)" stroke-linejoin="round" stroke-linecap="round" stroke-width="0.0800" fill="currentColor" stroke="currentColor" points="6.2616 -0.2000 6.2616 0.2000 0.0400 0.2000 0.0400 -0.2000"/>
<polygon transform="translate(37.0391, 18.7646)" stroke-linejoin="round" stroke-linecap="round" stroke-width="0.0800" fill="currentColor" stroke="currentColor" points="1.1250 -0.2000 1.1250 0.2000 0.0400 0.2000 0.0400 -0.2000"/>
</a>
<polygon transform="translate(17.7983, 17.9546)" stroke-linejoin="round" stroke-linecap="round" stroke-width="0.0800" fill="currentColor" stroke="currentColor" points="5.0031 -0.2000 5.0031 0.2000 0.0400 0.2000 0.0400 -0.2000"/>
<a style="color:inherit;" xlink:href="textedit:///Users/jwy/Documents/OPUS/GitHub/sf004/public/pieces/sf004/notation/sf004_ly_template_9beats.ly:64:21:22">
<text transform="translate(19.8760, 17.1950)" font-family="serif" font-style="italic" font-size="1.7461" text-anchor="start" fill="currentColor">
<tspan>3</tspan>
</text>
</a>
<a style="color:inherit;" xlink:href="textedit:///Users/jwy/Documents/OPUS/GitHub/sf004/public/pieces/sf004/notation/sf004_ly_template_9beats.ly:64:21:22">
<line transform="translate(17.7983, 16.6146)" stroke-linejoin="round" stroke-linecap="round" stroke-width="0.1600" stroke="currentColor" x1="5.2431" y1="0.0000" x2="5.2431" y2="0.7000"/>
<line transform="translate(17.7983, 16.6146)" stroke-linejoin="round" stroke-linecap="round" stroke-width="0.1600" stroke="currentColor" x1="-0.2000" y1="-0.0000" x2="-0.2000" y2="0.7000"/>
<line transform="translate(17.7983, 16.6146)" stroke-linejoin="round" stroke-linecap="round" stroke-width="0.1600" stroke="currentColor" x1="5.2431" y1="0.0000" x2="3.5654" y2="0.0000"/>
<line transform="translate(17.7983, 16.6146)" stroke-linejoin="round" stroke-linecap="round" stroke-width="0.1600" stroke="currentColor" x1="-0.2000" y1="-0.0000" x2="1.6777" y2="0.0000"/>
</a>
<a style="color:inherit;" xlink:href="textedit:///Users/jwy/Documents/OPUS/GitHub/sf004/public/pieces/sf004/notation/sf004_ly_template_9beats.ly:64:108:109">
<path transform="translate(55.6144, 23.1446) scale(0.0032, -0.0032)" d="M212 138c59 0 113 -31 113 -95c0 -71 -52 -120 -99 -148c-34 -21 -73 -33 -113 -33c-59 0 -113 31 -113 95c0 71 53 120 100 148c34 21 72 33 112 33z" fill="currentColor"/>
</a>
<a style="color:inherit;" xlink:href="textedit:///Users/jwy/Documents/OPUS/GitHub/sf004/public/pieces/sf004/notation/sf004_ly_template_9beats.ly:64:102:103">
<path transform="translate(53.8139, 23.1446) scale(0.0032, -0.0032)" d="M212 138c59 0 113 -31 113 -95c0 -71 -52 -120 -99 -148c-34 -21 -73 -33 -113 -33c-59 0 -113 31 -113 95c0 71 53 120 100 148c34 21 72 33 112 33z" fill="currentColor"/>
</a>
<rect transform="translate(54.7814, 21.1446)" x="-0.0650" y="-3.1900" width="0.1300" height="5.0540" ry="0.0400" fill="currentColor"/>
<rect transform="translate(56.5819, 21.1446)" x="-0.0650" y="-3.1900" width="0.1300" height="5.0540" ry="0.0400" fill="currentColor"/>
<a style="color:inherit;" xlink:href="textedit:///Users/jwy/Documents/OPUS/GitHub/sf004/public/pieces/sf004/notation/sf004_ly_template_9beats.ly:64:111:112">
<path transform="translate(57.4149, 21.1446) scale(0.0040, -0.0040)" d="M72 -250l117 326c-34 -12 -69 -22 -105 -22c-46 0 -87 33 -87 79c0 40 33 72 73 72c25 0 48 -15 56 -39c10 -28 6 -59 35 -59c16 0 54 48 61 63c6 12 23 12 28 0l-123 -420c-8 -7 -17 -10 -27 -10s-20 3 -28 10z" fill="currentColor"/>
</a>
<a style="color:inherit;" xlink:href="textedit:///Users/jwy/Documents/OPUS/GitHub/sf004/public/pieces/sf004/notation/sf004_ly_template_9beats.ly:64:34:35">
<path transform="translate(16.8959, 23.1446) scale(0.0032, -0.0032)" d="M212 138c59 0 113 -31 113 -95c0 -71 -52 -120 -99 -148c-34 -21 -73 -33 -113 -33c-59 0 -113 31 -113 95c0 71 53 120 100 148c34 21 72 33 112 33z" fill="currentColor"/>
</a>
<a style="color:inherit;" xlink:href="textedit:///Users/jwy/Documents/OPUS/GitHub/sf004/public/pieces/sf004/notation/sf004_ly_template_9beats.ly:64:14:15">
<path transform="translate(9.1912, 23.1446) scale(0.0032, -0.0032)" d="M212 138c59 0 113 -31 113 -95c0 -71 -52 -120 -99 -148c-34 -21 -73 -33 -113 -33c-59 0 -113 31 -113 95c0 71 53 120 100 148c34 21 72 33 112 33z" fill="currentColor"/>
</a>
<rect transform="translate(10.1587, 21.1446)" x="-0.0650" y="-3.5000" width="0.1300" height="5.3640" ry="0.0400" fill="currentColor"/>
<a style="color:inherit;" xlink:href="textedit:///Users/jwy/Documents/OPUS/GitHub/sf004/public/pieces/sf004/notation/sf004_ly_template_9beats.ly:64:8:9">
<path transform="translate(1.5691, 21.1446) scale(0.0040, -0.0040)" d="M-23 -116c0 28 11 42 40 42c33 0 78 -13 119 -31l-132 158c-7 9 -10 17 -10 25c0 34 50 66 87 99c25 22 37 52 37 83c0 24 -8 49 -25 69l-35 42c-3 3 -4 7 -4 10c0 9 9 15 17 15c4 0 8 -1 11 -5l151 -180c7 -9 10 -17 10 -25c0 -34 -50 -66 -87 -99
c-25 -22 -37 -52 -37 -83c0 -24 7 -49 24 -69l84 -99c3 -3 4 -7 4 -10c0 -9 -8 -16 -16 -16c-4 0 -9 2 -12 6c-18 21 -63 38 -97 38c-41 0 -53 -26 -53 -67c0 -35 11 -74 28 -94c5 -6 0 -13 -6 -13c-2 0 -4 0 -6 2c-45 54 -92 148 -92 202z" fill="currentColor"/>
</a>
<rect transform="translate(17.8633, 21.1446)" x="-0.0650" y="-3.1900" width="0.1300" height="5.0540" ry="0.0400" fill="currentColor"/>
<rect transform="translate(20.3199, 21.1446)" x="-0.0650" y="-3.1900" width="0.1300" height="5.0540" ry="0.0400" fill="currentColor"/>
<a style="color:inherit;" xlink:href="textedit:///Users/jwy/Documents/OPUS/GitHub/sf004/public/pieces/sf004/notation/sf004_ly_template_9beats.ly:64:38:39">
<path transform="translate(19.3524, 23.1446) scale(0.0032, -0.0032)" d="M212 138c59 0 113 -31 113 -95c0 -71 -52 -120 -99 -148c-34 -21 -73 -33 -113 -33c-59 0 -113 31 -113 95c0 71 53 120 100 148c34 21 72 33 112 33z" fill="currentColor"/>
</a>
<a style="color:inherit;" xlink:href="textedit:///Users/jwy/Documents/OPUS/GitHub/sf004/public/pieces/sf004/notation/sf004_ly_template_9beats.ly:64:54:55">
<path transform="translate(27.8665, 23.1446) scale(0.0032, -0.0032)" d="M212 138c59 0 113 -31 113 -95c0 -71 -52 -120 -99 -148c-34 -21 -73 -33 -113 -33c-59 0 -113 31 -113 95c0 71 53 120 100 148c34 21 72 33 112 33z" fill="currentColor"/>
</a>
<a style="color:inherit;" xlink:href="textedit:///Users/jwy/Documents/OPUS/GitHub/sf004/public/pieces/sf004/notation/sf004_ly_template_9beats.ly:64:52:53">
<path transform="translate(26.0660, 23.1446) scale(0.0032, -0.0032)" d="M212 138c59 0 113 -31 113 -95c0 -71 -52 -120 -99 -148c-34 -21 -73 -33 -113 -33c-59 0 -113 31 -113 95c0 71 53 120 100 148c34 21 72 33 112 33z" fill="currentColor"/>
</a>
<rect transform="translate(27.0334, 21.1446)" x="-0.0650" y="-3.1900" width="0.1300" height="5.0540" ry="0.0400" fill="currentColor"/>
<rect transform="translate(28.8340, 21.1446)" x="-0.0650" y="-3.1900" width="0.1300" height="5.0540" ry="0.0400" fill="currentColor"/>
<a style="color:inherit;" xlink:href="textedit:///Users/jwy/Documents/OPUS/GitHub/sf004/public/pieces/sf004/notation/sf004_ly_template_9beats.ly:64:56:57">
<path transform="translate(29.6670, 23.1446) scale(0.0032, -0.0032)" d="M212 138c59 0 113 -31 113 -95c0 -71 -52 -120 -99 -148c-34 -21 -73 -33 -113 -33c-59 0 -113 31 -113 95c0 71 53 120 100 148c34 21 72 33 112 33z" fill="currentColor"/>
</a>
<rect transform="translate(30.6345, 21.1446)" x="-0.0650" y="-3.1900" width="0.1300" height="5.0540" ry="0.0400" fill="currentColor"/>
<rect transform="translate(25.2329, 21.1446)" x="-0.0650" y="-3.1900" width="0.1300" height="5.0540" ry="0.0400" fill="currentColor"/>
<a style="color:inherit;" xlink:href="textedit:///Users/jwy/Documents/OPUS/GitHub/sf004/public/pieces/sf004/notation/sf004_ly_template_9beats.ly:64:41:42">
<path transform="translate(21.8089, 23.1446) scale(0.0032, -0.0032)" d="M212 138c59 0 113 -31 113 -95c0 -71 -52 -120 -99 -148c-34 -21 -73 -33 -113 -33c-59 0 -113 31 -113 95c0 71 53 120 100 148c34 21 72 33 112 33z" fill="currentColor"/>
</a>
<rect transform="translate(22.7764, 21.1446)" x="-0.0650" y="-3.1900" width="0.1300" height="5.0540" ry="0.0400" fill="currentColor"/>
<a style="color:inherit;" xlink:href="textedit:///Users/jwy/Documents/OPUS/GitHub/sf004/public/pieces/sf004/notation/sf004_ly_template_9beats.ly:64:47:48">
<path transform="translate(24.2654, 23.1446) scale(0.0032, -0.0032)" d="M212 138c59 0 113 -31 113 -95c0 -71 -52 -120 -99 -148c-34 -21 -73 -33 -113 -33c-59 0 -113 31 -113 95c0 71 53 120 100 148c34 21 72 33 112 33z" fill="currentColor"/>
</a>
<rect transform="translate(62.3469, 36.1446)" x="-0.0650" y="-3.5000" width="0.1300" height="5.3640" ry="0.0400" fill="currentColor"/>
<a style="color:inherit;" xlink:href="textedit:///Users/jwy/Documents/OPUS/GitHub/sf004/public/pieces/sf004/notation/sf004_ly_template_9beats.ly:65:31:32">
<path transform="translate(61.3794, 38.1446) scale(0.0032, -0.0032)" d="M212 138c59 0 113 -31 113 -95c0 -71 -52 -120 -99 -148c-34 -21 -73 -33 -113 -33c-59 0 -113 31 -113 95c0 71 53 120 100 148c34 21 72 33 112 33z" fill="currentColor"/>
</a>
<a style="color:inherit;" xlink:href="textedit:///Users/jwy/Documents/OPUS/GitHub/sf004/public/pieces/sf004/notation/sf004_ly_template_9beats.ly:65:24:25">
<path transform="translate(53.9031, 38.1446) scale(0.0032, -0.0032)" d="M212 138c59 0 113 -31 113 -95c0 -71 -52 -120 -99 -148c-34 -21 -73 -33 -113 -33c-59 0 -113 31 -113 95c0 71 53 120 100 148c34 21 72 33 112 33z" fill="currentColor"/>
</a>
<a style="color:inherit;" xlink:href="textedit:///Users/jwy/Documents/OPUS/GitHub/sf004/public/pieces/sf004/notation/sf004_ly_template_9beats.ly:65:14:15">
<path transform="translate(16.5216, 38.1446) scale(0.0032, -0.0032)" d="M212 138c59 0 113 -31 113 -95c0 -71 -52 -120 -99 -148c-34 -21 -73 -33 -113 -33c-59 0 -113 31 -113 95c0 71 53 120 100 148c34 21 72 33 112 33z" fill="currentColor"/>
</a>
<a style="color:inherit;" xlink:href="textedit:///Users/jwy/Documents/OPUS/GitHub/sf004/public/pieces/sf004/notation/sf004_ly_template_9beats.ly:65:12:13">
<path transform="translate(9.0453, 38.1446) scale(0.0032, -0.0032)" d="M212 138c59 0 113 -31 113 -95c0 -71 -52 -120 -99 -148c-34 -21 -73 -33 -113 -33c-59 0 -113 31 -113 95c0 71 53 120 100 148c34 21 72 33 112 33z" fill="currentColor"/>
</a>
<rect transform="translate(10.0128, 36.1446)" x="-0.0650" y="-3.5000" width="0.1300" height="5.3640" ry="0.0400" fill="currentColor"/>
<rect transform="translate(54.8706, 36.1446)" x="-0.0650" y="-3.5000" width="0.1300" height="5.3640" ry="0.0400" fill="currentColor"/>
<rect transform="translate(17.4891, 36.1446)" x="-0.0650" y="-3.5000" width="0.1300" height="5.3640" ry="0.0400" fill="currentColor"/>
<a style="color:inherit;" xlink:href="textedit:///Users/jwy/Documents/OPUS/GitHub/sf004/public/pieces/sf004/notation/sf004_ly_template_9beats.ly:65:16:17">
<path transform="translate(23.9979, 38.1446) scale(0.0032, -0.0032)" d="M212 138c59 0 113 -31 113 -95c0 -71 -52 -120 -99 -148c-34 -21 -73 -33 -113 -33c-59 0 -113 31 -113 95c0 71 53 120 100 148c34 21 72 33 112 33z" fill="currentColor"/>
</a>
<rect transform="translate(24.9654, 36.1446)" x="-0.0650" y="-3.5000" width="0.1300" height="5.3640" ry="0.0400" fill="currentColor"/>
<a style="color:inherit;" xlink:href="textedit:///Users/jwy/Documents/OPUS/GitHub/sf004/public/pieces/sf004/notation/sf004_ly_template_9beats.ly:65:18:19">
<path transform="translate(31.4742, 38.1446) scale(0.0032, -0.0032)" d="M212 138c59 0 113 -31 113 -95c0 -71 -52 -120 -99 -148c-34 -21 -73 -33 -113 -33c-59 0 -113 31 -113 95c0 71 53 120 100 148c34 21 72 33 112 33z" fill="currentColor"/>
</a>
<rect transform="translate(2.5365, 36.1446)" x="-0.0650" y="-3.5000" width="0.1300" height="5.3640" ry="0.0400" fill="currentColor"/>
<rect transform="translate(47.3943, 36.1446)" x="-0.0650" y="-3.5000" width="0.1300" height="5.3640" ry="0.0400" fill="currentColor"/>
<a style="color:inherit;" xlink:href="textedit:///Users/jwy/Documents/OPUS/GitHub/sf004/public/pieces/sf004/notation/sf004_ly_template_9beats.ly:65:22:23">
<path transform="translate(46.4268, 38.1446) scale(0.0032, -0.0032)" d="M212 138c59 0 113 -31 113 -95c0 -71 -52 -120 -99 -148c-34 -21 -73 -33 -113 -33c-59 0 -113 31 -113 95c0 71 53 120 100 148c34 21 72 33 112 33z" fill="currentColor"/>
</a>
<rect transform="translate(39.9180, 36.1446)" x="-0.0650" y="-3.5000" width="0.1300" height="5.3640" ry="0.0400" fill="currentColor"/>
<a style="color:inherit;" xlink:href="textedit:///Users/jwy/Documents/OPUS/GitHub/sf004/public/pieces/sf004/notation/sf004_ly_template_9beats.ly:65:20:21">
<path transform="translate(38.9505, 38.1446) scale(0.0032, -0.0032)" d="M212 138c59 0 113 -31 113 -95c0 -71 -52 -120 -99 -148c-34 -21 -73 -33 -113 -33c-59 0 -113 31 -113 95c0 71 53 120 100 148c34 21 72 33 112 33z" fill="currentColor"/>
</a>
<a style="color:inherit;" xlink:href="textedit:///Users/jwy/Documents/OPUS/GitHub/sf004/public/pieces/sf004/notation/sf004_ly_template_9beats.ly:65:8:9">
<path transform="translate(1.5691, 38.1446) scale(0.0032, -0.0032)" d="M212 138c59 0 113 -31 113 -95c0 -71 -52 -120 -99 -148c-34 -21 -73 -33 -113 -33c-59 0 -113 31 -113 95c0 71 53 120 100 148c34 21 72 33 112 33z" fill="currentColor"/>
</a>
<rect transform="translate(32.4417, 36.1446)" x="-0.0650" y="-3.5000" width="0.1300" height="5.3640" ry="0.0400" fill="currentColor"/>
</svg>
