<?xml version="1.0" encoding="UTF-8" standalone="no"?>
<svg
   xmlns:dc="http://purl.org/dc/elements/1.1/"
   xmlns:cc="http://creativecommons.org/ns#"
   xmlns:rdf="http://www.w3.org/1999/02/22-rdf-syntax-ns#"
   xmlns:svg="http://www.w3.org/2000/svg"
   xmlns="http://www.w3.org/2000/svg"
   xmlns:xlink="http://www.w3.org/1999/xlink"
   id="svg34"
   viewBox="0 0 6.2594691 6.7605501"
   height="11.880276mm"
   width="10.999784mm"
   version="1.2">
  <metadata
     id="metadata40">
    <rdf:RDF>
      <cc:Work
         rdf:about="">
        <dc:format>image/svg+xml</dc:format>
        <dc:type
           rdf:resource="http://purl.org/dc/dcmitype/StillImage" />
        <dc:title></dc:title>
      </cc:Work>
    </rdf:RDF>
  </metadata>
  <defs
     id="defs38" />
  <style
     id="style10"
     text="style/css"><![CDATA[
tspan { white-space: pre; }
]]></style>
  <!-- Page: 1/1 -->
  <g
     id="g66">
    <text
       font-family="serif"
       font-size="2.2001px"
       text-anchor="start"
       fill="currentColor"
       id="text14"
       x="-6.8315036e-05"
       y="-4.999981e-05"><tspan
         id="tspan12" /></text>
    <line
       stroke-linejoin="round"
       stroke-linecap="round"
       stroke-width="0.1171"
       stroke="currentColor"
       x1="0.058531687"
       y1="6.0585499"
       x2="6.200932"
       y2="6.0585499"
       id="line16" />
    <line
       stroke-linejoin="round"
       stroke-linecap="round"
       stroke-width="0.1171"
       stroke="currentColor"
       x1="0.058531687"
       y1="4.5585499"
       x2="6.200932"
       y2="4.5585499"
       id="line18" />
    <line
       stroke-linejoin="round"
       stroke-linecap="round"
       stroke-width="0.1171"
       stroke="currentColor"
       x1="0.058531687"
       y1="3.0585499"
       x2="6.200932"
       y2="3.0585499"
       id="line20" />
    <line
       stroke-linejoin="round"
       stroke-linecap="round"
       stroke-width="0.1171"
       stroke="currentColor"
       x1="0.058531687"
       y1="1.55855"
       x2="6.200932"
       y2="1.55855"
       id="line22" />
    <line
       stroke-linejoin="round"
       stroke-linecap="round"
       stroke-width="0.1171"
       stroke="currentColor"
       x1="0.058531687"
       y1="0.05855"
       x2="6.200932"
       y2="0.05855"
       id="line24" />
    <a
       style="color:inherit"
       xlink:href="textedit:///Users/jwy/Documents/OPUS/GitHub/sf004/public/pieces/sf004/notation/e4_e5.ly:90:10:11"
       id="a28"
       transform="translate(-0.56916832,-4.9999809e-5)">
      <path
         transform="matrix(0.0052,0,0,-0.0052,2.5691,6.0586)"
         d="m 222,135 c 53,0 104,-27 104,-86 0,-71 -56,-120 -103,-148 -36,-22 -76,-36 -118,-36 -53,0 -105,27 -105,86 0,71 57,120 104,148 36,22 76,36 118,36 z"
         fill="currentColor"
         id="path26" />
    </a>
    <a
       style="color:inherit"
       xlink:href="textedit:///Users/jwy/Documents/OPUS/GitHub/sf004/public/pieces/sf004/notation/e4_e5.ly:90:15:16"
       id="a32"
       transform="translate(-0.56916832,-4.9999809e-5)">
      <path
         transform="matrix(0.0052,0,0,-0.0052,2.5691,0.8086)"
         d="m 222,135 c 53,0 104,-27 104,-86 0,-71 -56,-120 -103,-148 -36,-22 -76,-36 -118,-36 -53,0 -105,27 -105,86 0,71 57,120 104,148 36,22 76,36 118,36 z"
         fill="currentColor"
         id="path30" />
    </a>
  </g>
</svg>
