<?xml version="1.0" encoding="UTF-8" standalone="no"?>
<svg
   xmlns:dc="http://purl.org/dc/elements/1.1/"
   xmlns:cc="http://creativecommons.org/ns#"
   xmlns:rdf="http://www.w3.org/1999/02/22-rdf-syntax-ns#"
   xmlns:svg="http://www.w3.org/2000/svg"
   xmlns="http://www.w3.org/2000/svg"
   xmlns:xlink="http://www.w3.org/1999/xlink"
   id="svg378"
   viewBox="0 0 6.2594691 6.7605501"
   height="11.880276mm"
   width="10.999784mm"
   version="1.2">
  <metadata
     id="metadata384">
    <rdf:RDF>
      <cc:Work
         rdf:about="">
        <dc:format>image/svg+xml</dc:format>
        <dc:type
           rdf:resource="http://purl.org/dc/dcmitype/StillImage" />
        <dc:title></dc:title>
      </cc:Work>
    </rdf:RDF>
  </metadata>
  <defs
     id="defs382" />
  <style
     id="style340"
     text="style/css"><![CDATA[
tspan { white-space: pre; }
]]></style>
  <!-- Page: 1/1 -->
  <g
     transform="translate(-0.56916832,-4.9999809e-5)"
     id="g467">
    <g
       id="g404">
      <text
         id="text344"
         fill="currentColor"
         text-anchor="start"
         font-size="2.2001px"
         font-family="serif"
         transform="translate(0.5691)"><tspan
           id="tspan342" /></text>
      <line
         id="line346"
         y2="0"
         x2="6.2010002"
         y1="0"
         x1="0.058600001"
         stroke="currentColor"
         stroke-width="0.1171"
         stroke-linecap="round"
         stroke-linejoin="round"
         transform="translate(0.5691,6.0586)" />
      <line
         id="line348"
         y2="0"
         x2="6.2010002"
         y1="0"
         x1="0.058600001"
         stroke="currentColor"
         stroke-width="0.1171"
         stroke-linecap="round"
         stroke-linejoin="round"
         transform="translate(0.5691,4.5586)" />
      <line
         id="line350"
         y2="0"
         x2="6.2010002"
         y1="0"
         x1="0.058600001"
         stroke="currentColor"
         stroke-width="0.1171"
         stroke-linecap="round"
         stroke-linejoin="round"
         transform="translate(0.5691,3.0586)" />
      <line
         id="line352"
         y2="0"
         x2="6.2010002"
         y1="0"
         x1="0.058600001"
         stroke="currentColor"
         stroke-width="0.1171"
         stroke-linecap="round"
         stroke-linejoin="round"
         transform="translate(0.5691,1.5586)" />
      <line
         id="line354"
         y2="0"
         x2="6.2010002"
         y1="0"
         x1="0.058600001"
         stroke="currentColor"
         stroke-width="0.1171"
         stroke-linecap="round"
         stroke-linejoin="round"
         transform="translate(0.5691,0.0586)" />
      <path
         id="path356"
         fill="currentColor"
         d="m 216,-312 c 0,-10 -8,-19 -18,-19 -10,0 -19,9 -19,19 v 145 l -83,-31 v -158 c 0,-10 -9,-19 -19,-19 -10,0 -18,9 -18,19 v 145 l -32,-12 c -2,-1 -5,-1 -7,-1 -11,0 -20,9 -20,20 v 60 c 0,8 5,16 13,19 l 46,16 V 51 L 27,40 C 25,39 22,39 20,39 9,39 0,48 0,59 v 60 c 0,8 5,15 13,18 l 46,17 v 158 c 0,10 8,19 18,19 10,0 19,-9 19,-19 V 167 l 83,31 v 158 c 0,10 9,19 19,19 10,0 18,-9 18,-19 V 211 l 32,12 c 2,1 5,1 7,1 11,0 20,-9 20,-20 v -60 c 0,-8 -5,-16 -13,-19 L 216,109 V -51 l 32,11 c 2,1 5,1 7,1 11,0 20,-9 20,-20 v -60 c 0,-8 -5,-15 -13,-18 l -46,-17 z M 96,65 V -95 l 83,30 V 95 Z"
         transform="matrix(0.0038,0,0,-0.0038,1.1796,3.8086)" />
      <a
         id="a360"
         xlink:href="textedit:///Users/jwy/Documents/OPUS/GitHub/sf004/public/pieces/sf004/notation/e4_e5_b4cluster.ly:95:24:25"
         style="color:inherit">
        <path
           id="path358"
           fill="currentColor"
           d="m 222,135 c 53,0 104,-27 104,-86 0,-71 -56,-120 -103,-148 -36,-22 -76,-36 -118,-36 -53,0 -105,27 -105,86 0,71 57,120 104,148 36,22 76,36 118,36 z"
           transform="matrix(0.0052,0,0,-0.0052,2.5691,2.3086)" />
      </a>
      <a
         id="a364"
         xlink:href="textedit:///Users/jwy/Documents/OPUS/GitHub/sf004/public/pieces/sf004/notation/e4_e5_b4cluster.ly:95:10:11"
         style="color:inherit">
        <path
           id="path362"
           fill="currentColor"
           d="m 222,135 c 53,0 104,-27 104,-86 0,-71 -56,-120 -103,-148 -36,-22 -76,-36 -118,-36 -53,0 -105,27 -105,86 0,71 57,120 104,148 36,22 76,36 118,36 z"
           transform="matrix(0.0052,0,0,-0.0052,2.5691,6.0586)" />
      </a>
      <a
         id="a368"
         xlink:href="textedit:///Users/jwy/Documents/OPUS/GitHub/sf004/public/pieces/sf004/notation/e4_e5_b4cluster.ly:95:16:17"
         style="color:inherit">
        <path
           id="path366"
           fill="currentColor"
           d="m 222,135 c 53,0 104,-27 104,-86 0,-71 -56,-120 -103,-148 -36,-22 -76,-36 -118,-36 -53,0 -105,27 -105,86 0,71 57,120 104,148 36,22 76,36 118,36 z"
           transform="matrix(0.0052,0,0,-0.0052,2.5691,3.8086)" />
      </a>
      <a
         id="a372"
         xlink:href="textedit:///Users/jwy/Documents/OPUS/GitHub/sf004/public/pieces/sf004/notation/e4_e5_b4cluster.ly:95:21:22"
         style="color:inherit">
        <path
           id="path370"
           fill="currentColor"
           d="m 222,135 c 53,0 104,-27 104,-86 0,-71 -56,-120 -103,-148 -36,-22 -76,-36 -118,-36 -53,0 -105,27 -105,86 0,71 57,120 104,148 36,22 76,36 118,36 z"
           transform="matrix(0.0052,0,0,-0.0052,4.1882,3.0586)" />
      </a>
      <a
         id="a376"
         xlink:href="textedit:///Users/jwy/Documents/OPUS/GitHub/sf004/public/pieces/sf004/notation/e4_e5_b4cluster.ly:95:29:30"
         style="color:inherit">
        <path
           id="path374"
           fill="currentColor"
           d="m 222,135 c 53,0 104,-27 104,-86 0,-71 -56,-120 -103,-148 -36,-22 -76,-36 -118,-36 -53,0 -105,27 -105,86 0,71 57,120 104,148 36,22 76,36 118,36 z"
           transform="matrix(0.0052,0,0,-0.0052,2.5691,0.8086)" />
      </a>
    </g>
  </g>
</svg>
