<?xml version="1.0" encoding="UTF-8" standalone="no"?>
<svg
   xmlns:dc="http://purl.org/dc/elements/1.1/"
   xmlns:cc="http://creativecommons.org/ns#"
   xmlns:rdf="http://www.w3.org/1999/02/22-rdf-syntax-ns#"
   xmlns:svg="http://www.w3.org/2000/svg"
   xmlns="http://www.w3.org/2000/svg"
   xmlns:xlink="http://www.w3.org/1999/xlink"
   id="svg131"
   viewBox="0 0 6.2594691 6.7605501"
   height="11.880276mm"
   width="10.999784mm"
   version="1.2">
  <metadata
     id="metadata137">
    <rdf:RDF>
      <cc:Work
         rdf:about="">
        <dc:format>image/svg+xml</dc:format>
        <dc:type
           rdf:resource="http://purl.org/dc/dcmitype/StillImage" />
        <dc:title></dc:title>
      </cc:Work>
    </rdf:RDF>
  </metadata>
  <defs
     id="defs135" />
  <style
     id="style103"
     text="style/css"><![CDATA[
tspan { white-space: pre; }
]]></style>
  <!-- Page: 1/1 -->
  <g
     transform="translate(-0.56916832,-4.9999809e-5)"
     id="g244">
    <g
       id="g152">
      <text
         id="text107"
         fill="currentColor"
         text-anchor="start"
         font-size="2.2001px"
         font-family="serif"
         transform="translate(0.5691)"><tspan
           id="tspan105" /></text>
      <line
         id="line109"
         y2="0"
         x2="6.2010002"
         y1="0"
         x1="0.058600001"
         stroke="currentColor"
         stroke-width="0.1171"
         stroke-linecap="round"
         stroke-linejoin="round"
         transform="translate(0.5691,6.0586)" />
      <line
         id="line111"
         y2="0"
         x2="6.2010002"
         y1="0"
         x1="0.058600001"
         stroke="currentColor"
         stroke-width="0.1171"
         stroke-linecap="round"
         stroke-linejoin="round"
         transform="translate(0.5691,4.5586)" />
      <line
         id="line113"
         y2="0"
         x2="6.2010002"
         y1="0"
         x1="0.058600001"
         stroke="currentColor"
         stroke-width="0.1171"
         stroke-linecap="round"
         stroke-linejoin="round"
         transform="translate(0.5691,3.0586)" />
      <line
         id="line115"
         y2="0"
         x2="6.2010002"
         y1="0"
         x1="0.058600001"
         stroke="currentColor"
         stroke-width="0.1171"
         stroke-linecap="round"
         stroke-linejoin="round"
         transform="translate(0.5691,1.5586)" />
      <line
         id="line117"
         y2="0"
         x2="6.2010002"
         y1="0"
         x1="0.058600001"
         stroke="currentColor"
         stroke-width="0.1171"
         stroke-linecap="round"
         stroke-linejoin="round"
         transform="translate(0.5691,0.0586)" />
      <a
         id="a121"
         xlink:href="textedit:///Users/jwy/Documents/OPUS/GitHub/sf004/public/pieces/sf004/notation/e4_e5_b4.ly:90:18:19"
         style="color:inherit">
        <path
           id="path119"
           fill="currentColor"
           d="m 222,135 c 53,0 104,-27 104,-86 0,-71 -56,-120 -103,-148 -36,-22 -76,-36 -118,-36 -53,0 -105,27 -105,86 0,71 57,120 104,148 36,22 76,36 118,36 z"
           transform="matrix(0.0052,0,0,-0.0052,2.5691,0.8086)" />
      </a>
      <a
         id="a125"
         xlink:href="textedit:///Users/jwy/Documents/OPUS/GitHub/sf004/public/pieces/sf004/notation/e4_e5_b4.ly:90:10:11"
         style="color:inherit">
        <path
           id="path123"
           fill="currentColor"
           d="m 222,135 c 53,0 104,-27 104,-86 0,-71 -56,-120 -103,-148 -36,-22 -76,-36 -118,-36 -53,0 -105,27 -105,86 0,71 57,120 104,148 36,22 76,36 118,36 z"
           transform="matrix(0.0052,0,0,-0.0052,2.5691,6.0586)" />
      </a>
      <a
         id="a129"
         xlink:href="textedit:///Users/jwy/Documents/OPUS/GitHub/sf004/public/pieces/sf004/notation/e4_e5_b4.ly:90:15:16"
         style="color:inherit">
        <path
           id="path127"
           fill="currentColor"
           d="m 222,135 c 53,0 104,-27 104,-86 0,-71 -56,-120 -103,-148 -36,-22 -76,-36 -118,-36 -53,0 -105,27 -105,86 0,71 57,120 104,148 36,22 76,36 118,36 z"
           transform="matrix(0.0052,0,0,-0.0052,2.5691,3.0586)" />
      </a>
    </g>
  </g>
</svg>
