<?xml version="1.0" encoding="UTF-8" standalone="no"?>
<svg
   xmlns:dc="http://purl.org/dc/elements/1.1/"
   xmlns:cc="http://creativecommons.org/ns#"
   xmlns:rdf="http://www.w3.org/1999/02/22-rdf-syntax-ns#"
   xmlns:svg="http://www.w3.org/2000/svg"
   xmlns="http://www.w3.org/2000/svg"
   xmlns:xlink="http://www.w3.org/1999/xlink"
   id="svg570"
   viewBox="0 0 6.7454433 8.8769998"
   height="15.599501mm"
   width="11.853787mm"
   version="1.2">
  <metadata
     id="metadata576">
    <rdf:RDF>
      <cc:Work
         rdf:about="">
        <dc:format>image/svg+xml</dc:format>
        <dc:type
           rdf:resource="http://purl.org/dc/dcmitype/StillImage" />
        <dc:title></dc:title>
      </cc:Work>
    </rdf:RDF>
  </metadata>
  <defs
     id="defs574" />
  <style
     id="style512"
     text="style/css"><![CDATA[
tspan { white-space: pre; }
]]></style>
  <!-- Page: 1/1 -->
  <g
     transform="translate(-0.56916831,0.0023)"
     id="g606">
    <text
       transform="translate(0.5691)"
       font-family="serif"
       font-size="2.2001px"
       text-anchor="start"
       fill="currentColor"
       id="text516"><tspan
         id="tspan514" /></text>
    <line
       stroke-linejoin="round"
       stroke-linecap="round"
       stroke-width="0.0773496"
       stroke="currentColor"
       x1="0.6078248"
       y1="6.7195754"
       x2="7.2759519"
       y2="6.7195754"
       id="line518" />
    <line
       stroke-linejoin="round"
       stroke-linecap="round"
       stroke-width="0.0773496"
       stroke="currentColor"
       x1="0.6078248"
       y1="5.2096376"
       x2="7.2759519"
       y2="5.2096376"
       id="line520" />
    <line
       stroke-linejoin="round"
       stroke-linecap="round"
       stroke-width="0.0773496"
       stroke="currentColor"
       x1="0.6078248"
       y1="3.6997001"
       x2="7.2759519"
       y2="3.6997001"
       id="line522" />
    <line
       stroke-linejoin="round"
       stroke-linecap="round"
       stroke-width="0.0773496"
       stroke="currentColor"
       x1="0.6078248"
       y1="2.1897624"
       x2="7.2759519"
       y2="2.1897624"
       id="line524" />
    <line
       stroke-linejoin="round"
       stroke-linecap="round"
       stroke-width="0.0773496"
       stroke="currentColor"
       x1="0.6078248"
       y1="0.67982477"
       x2="7.2759519"
       y2="0.67982477"
       id="line526" />
    <path
       transform="matrix(0.0038,0,0,-0.0038,2.1855,2.1997)"
       d="m 216,-312 c 0,-10 -8,-19 -18,-19 -10,0 -19,9 -19,19 v 145 l -83,-31 v -158 c 0,-10 -9,-19 -19,-19 -10,0 -18,9 -18,19 v 145 l -32,-12 c -2,-1 -5,-1 -7,-1 -11,0 -20,9 -20,20 v 60 c 0,8 5,16 13,19 l 46,16 V 51 L 27,40 C 25,39 22,39 20,39 9,39 0,48 0,59 v 60 c 0,8 5,15 13,18 l 46,17 v 158 c 0,10 8,19 18,19 10,0 19,-9 19,-19 V 167 l 83,31 v 158 c 0,10 9,19 19,19 10,0 18,-9 18,-19 V 211 l 32,12 c 2,1 5,1 7,1 11,0 20,-9 20,-20 v -60 c 0,-8 -5,-16 -13,-19 L 216,109 V -51 l 32,11 c 2,1 5,1 7,1 11,0 20,-9 20,-20 v -60 c 0,-8 -5,-15 -13,-18 l -46,-17 z M 96,65 V -95 l 83,30 V 95 Z"
       fill="currentColor"
       id="path528" />
    <path
       transform="matrix(0.0038,0,0,-0.0038,1.1691,4.4497)"
       d="m 216,-312 c 0,-10 -8,-19 -18,-19 -10,0 -19,9 -19,19 v 145 l -83,-31 v -158 c 0,-10 -9,-19 -19,-19 -10,0 -18,9 -18,19 v 145 l -32,-12 c -2,-1 -5,-1 -7,-1 -11,0 -20,9 -20,20 v 60 c 0,8 5,16 13,19 l 46,16 V 51 L 27,40 C 25,39 22,39 20,39 9,39 0,48 0,59 v 60 c 0,8 5,15 13,18 l 46,17 v 158 c 0,10 8,19 18,19 10,0 19,-9 19,-19 V 167 l 83,31 v 158 c 0,10 9,19 19,19 10,0 18,-9 18,-19 V 211 l 32,12 c 2,1 5,1 7,1 11,0 20,-9 20,-20 v -60 c 0,-8 -5,-16 -13,-19 L 216,109 V -51 l 32,11 c 2,1 5,1 7,1 11,0 20,-9 20,-20 v -60 c 0,-8 -5,-15 -13,-18 l -46,-17 z M 96,65 V -95 l 83,30 V 95 Z"
       fill="currentColor"
       id="path530" />
    <path
       transform="matrix(0.0038,0,0,-0.0038,2.1855,7.4497)"
       d="m 216,-312 c 0,-10 -8,-19 -18,-19 -10,0 -19,9 -19,19 v 145 l -83,-31 v -158 c 0,-10 -9,-19 -19,-19 -10,0 -18,9 -18,19 v 145 l -32,-12 c -2,-1 -5,-1 -7,-1 -11,0 -20,9 -20,20 v 60 c 0,8 5,16 13,19 l 46,16 V 51 L 27,40 C 25,39 22,39 20,39 9,39 0,48 0,59 v 60 c 0,8 5,15 13,18 l 46,17 v 158 c 0,10 8,19 18,19 10,0 19,-9 19,-19 V 167 l 83,31 v 158 c 0,10 9,19 19,19 10,0 18,-9 18,-19 V 211 l 32,12 c 2,1 5,1 7,1 11,0 20,-9 20,-20 v -60 c 0,-8 -5,-16 -13,-19 L 216,109 V -51 l 32,11 c 2,1 5,1 7,1 11,0 20,-9 20,-20 v -60 c 0,-8 -5,-15 -13,-18 l -46,-17 z M 96,65 V -95 l 83,30 V 95 Z"
       fill="currentColor"
       id="path532" />
    <a
       style="color:inherit"
       xlink:href="textedit:///Users/jwy/Documents/OPUS/GitHub/sf004/public/pieces/sf004/notation/e4cluster_e5cluster_b4cluster.ly:96:42:43"
       id="a536">
      <path
         transform="matrix(0.0052,0,0,-0.0052,3.5749,1.4497)"
         d="m 222,135 c 53,0 104,-27 104,-86 0,-71 -56,-120 -103,-148 -36,-22 -76,-36 -118,-36 -53,0 -105,27 -105,86 0,71 57,120 104,148 36,22 76,36 118,36 z"
         fill="currentColor"
         id="path534" />
    </a>
    <a
       style="color:inherit"
       xlink:href="textedit:///Users/jwy/Documents/OPUS/GitHub/sf004/public/pieces/sf004/notation/e4cluster_e5cluster_b4cluster.ly:96:10:11"
       id="a540">
      <path
         transform="matrix(0.0052,0,0,-0.0052,3.5749,7.4497)"
         d="m 222,135 c 53,0 104,-27 104,-86 0,-71 -56,-120 -103,-148 -36,-22 -76,-36 -118,-36 -53,0 -105,27 -105,86 0,71 57,120 104,148 36,22 76,36 118,36 z"
         fill="currentColor"
         id="path538" />
    </a>
    <a
       style="color:inherit"
       xlink:href="textedit:///Users/jwy/Documents/OPUS/GitHub/sf004/public/pieces/sf004/notation/e4cluster_e5cluster_b4cluster.ly:96:16:17"
       id="a544">
      <path
         transform="matrix(0.0052,0,0,-0.0052,5.1941,6.6997)"
         d="m 222,135 c 53,0 104,-27 104,-86 0,-71 -56,-120 -103,-148 -36,-22 -76,-36 -118,-36 -53,0 -105,27 -105,86 0,71 57,120 104,148 36,22 76,36 118,36 z"
         fill="currentColor"
         id="path542" />
    </a>
    <a
       style="color:inherit"
       xlink:href="textedit:///Users/jwy/Documents/OPUS/GitHub/sf004/public/pieces/sf004/notation/e4cluster_e5cluster_b4cluster.ly:96:19:20"
       id="a548">
      <path
         transform="matrix(0.0052,0,0,-0.0052,3.5749,5.9497)"
         d="m 222,135 c 53,0 104,-27 104,-86 0,-71 -56,-120 -103,-148 -36,-22 -76,-36 -118,-36 -53,0 -105,27 -105,86 0,71 57,120 104,148 36,22 76,36 118,36 z"
         fill="currentColor"
         id="path546" />
    </a>
    <a
       style="color:inherit"
       xlink:href="textedit:///Users/jwy/Documents/OPUS/GitHub/sf004/public/pieces/sf004/notation/e4cluster_e5cluster_b4cluster.ly:96:23:24"
       id="a552">
      <path
         transform="matrix(0.0052,0,0,-0.0052,3.5749,4.4497)"
         d="m 222,135 c 53,0 104,-27 104,-86 0,-71 -56,-120 -103,-148 -36,-22 -76,-36 -118,-36 -53,0 -105,27 -105,86 0,71 57,120 104,148 36,22 76,36 118,36 z"
         fill="currentColor"
         id="path550" />
    </a>
    <a
       style="color:inherit"
       xlink:href="textedit:///Users/jwy/Documents/OPUS/GitHub/sf004/public/pieces/sf004/notation/e4cluster_e5cluster_b4cluster.ly:96:28:29"
       id="a556">
      <path
         transform="matrix(0.0052,0,0,-0.0052,5.1941,3.6997)"
         d="m 222,135 c 53,0 104,-27 104,-86 0,-71 -56,-120 -103,-148 -36,-22 -76,-36 -118,-36 -53,0 -105,27 -105,86 0,71 57,120 104,148 36,22 76,36 118,36 z"
         fill="currentColor"
         id="path554" />
    </a>
    <a
       style="color:inherit"
       xlink:href="textedit:///Users/jwy/Documents/OPUS/GitHub/sf004/public/pieces/sf004/notation/e4cluster_e5cluster_b4cluster.ly:96:31:32"
       id="a560">
      <path
         transform="matrix(0.0052,0,0,-0.0052,3.5749,2.9497)"
         d="m 222,135 c 53,0 104,-27 104,-86 0,-71 -56,-120 -103,-148 -36,-22 -76,-36 -118,-36 -53,0 -105,27 -105,86 0,71 57,120 104,148 36,22 76,36 118,36 z"
         fill="currentColor"
         id="path558" />
    </a>
    <a
       style="color:inherit"
       xlink:href="textedit:///Users/jwy/Documents/OPUS/GitHub/sf004/public/pieces/sf004/notation/e4cluster_e5cluster_b4cluster.ly:96:36:37"
       id="a564">
      <path
         transform="matrix(0.0052,0,0,-0.0052,5.1941,2.1997)"
         d="m 222,135 c 53,0 104,-27 104,-86 0,-71 -56,-120 -103,-148 -36,-22 -76,-36 -118,-36 -53,0 -105,27 -105,86 0,71 57,120 104,148 36,22 76,36 118,36 z"
         fill="currentColor"
         id="path562" />
    </a>
    <a
       style="color:inherit"
       xlink:href="textedit:///Users/jwy/Documents/OPUS/GitHub/sf004/public/pieces/sf004/notation/e4cluster_e5cluster_b4cluster.ly:96:46:47"
       id="a568">
      <path
         transform="matrix(0.0052,0,0,-0.0052,5.1941,0.6997)"
         d="m 222,135 c 53,0 104,-27 104,-86 0,-71 -56,-120 -103,-148 -36,-22 -76,-36 -118,-36 -53,0 -105,27 -105,86 0,71 57,120 104,148 36,22 76,36 118,36 z"
         fill="currentColor"
         id="path566" />
    </a>
  </g>
</svg>
